<?xml version="1.0" encoding="UTF-8" standalone="no" ?>
<!DOCTYPE svg PUBLIC "-//W3C//DTD SVG 1.1//EN" "http://www.w3.org/Graphics/SVG/1.1/DTD/svg11.dtd">
<svg xmlns="http://www.w3.org/2000/svg" xmlns:xlink="http://www.w3.org/1999/xlink" version="1.1" width="50" height="50" viewBox="0 0 400 400" xml:space="preserve">
<desc>Created with Fabric.js 3.6.2</desc>
<defs>
</defs>
<g transform="matrix(4.98 0 0 4.98 200 200)" id="Layer_2"  >
<path style="stroke: none; stroke-width: 1; stroke-dasharray: none; stroke-linecap: butt; stroke-dashoffset: 0; stroke-linejoin: miter; stroke-miterlimit: 4; fill: rgb(234,0,66); fill-rule: nonzero; opacity: 1;"  transform=" translate(-32.07, -32.03)" d="M 33 18 h 15.2 c 0.9 0 1.7 -0.6 1.9 -1.5 l 0 0 l 2 -9.6 C 52.4 5.3 51.1 4 49.9 4 H 17 c -2.7 0 -5 2.2 -5 5 v 49.8 c 0 1.2 1.5 1.7 2.2 0.8 c 3.8 -4.8 11.3 -14.3 12.4 -15.6 c 1.5 -1.8 2 -1.9 4.4 -1.9 h 11.8 c 1.4 0 2.3 -1.1 2.4 -1.9 c 0.2 -0.8 1.7 -8.3 2 -9.8 l 0 0 c 0.2 -1.2 -0.7 -2.3 -1.9 -2.3 H 33 c -2.8 0 -5 -2.2 -5 -5 S 30.2 18 33 18 z" stroke-linecap="round" />
</g>
</svg>